<mxfile host="app.diagrams.net" modified="2021-10-11T06:34:34.887Z" agent="5.0 (Windows)" etag="D7Y4PsjZo3TlJhbtNFq8" version="15.4.3" type="github">
  <diagram id="C5RBs43oDa-KdzZeNtuy" name="Page-1">
    <mxGraphModel dx="782" dy="420" grid="1" gridSize="10" guides="1" tooltips="1" connect="1" arrows="1" fold="1" page="1" pageScale="1" pageWidth="827" pageHeight="1169" math="0" shadow="0">
      <root>
        <mxCell id="WIyWlLk6GJQsqaUBKTNV-0" />
        <mxCell id="WIyWlLk6GJQsqaUBKTNV-1" parent="WIyWlLk6GJQsqaUBKTNV-0" />
        <mxCell id="yyb1rJmJRtYRJqYl5ROI-4" style="edgeStyle=orthogonalEdgeStyle;rounded=0;orthogonalLoop=1;jettySize=auto;html=1;exitX=0.5;exitY=1;exitDx=0;exitDy=0;entryX=0.45;entryY=0.017;entryDx=0;entryDy=0;entryPerimeter=0;" edge="1" parent="WIyWlLk6GJQsqaUBKTNV-1" source="yyb1rJmJRtYRJqYl5ROI-1" target="yyb1rJmJRtYRJqYl5ROI-3">
          <mxGeometry relative="1" as="geometry" />
        </mxCell>
        <mxCell id="yyb1rJmJRtYRJqYl5ROI-1" value="&lt;div&gt;statckstorm:splunk_hook&lt;/div&gt;" style="rounded=1;whiteSpace=wrap;html=1;" vertex="1" parent="WIyWlLk6GJQsqaUBKTNV-1">
          <mxGeometry x="209" y="150" width="120" height="60" as="geometry" />
        </mxCell>
        <mxCell id="yyb1rJmJRtYRJqYl5ROI-5" value="tfcmd --action=drift --drift-type=resource-remove" style="edgeStyle=orthogonalEdgeStyle;rounded=0;orthogonalLoop=1;jettySize=auto;html=1;exitX=0.5;exitY=1;exitDx=0;exitDy=0;" edge="1" parent="WIyWlLk6GJQsqaUBKTNV-1" source="yyb1rJmJRtYRJqYl5ROI-3">
          <mxGeometry relative="1" as="geometry">
            <mxPoint x="280" y="380" as="targetPoint" />
          </mxGeometry>
        </mxCell>
        <mxCell id="yyb1rJmJRtYRJqYl5ROI-3" value="jenkins:resource_drift" style="rounded=1;whiteSpace=wrap;html=1;" vertex="1" parent="WIyWlLk6GJQsqaUBKTNV-1">
          <mxGeometry x="220" y="270" width="120" height="60" as="geometry" />
        </mxCell>
        <mxCell id="yyb1rJmJRtYRJqYl5ROI-6" value="tfcmd:load resource config from git:oneux_resource_configs" style="rounded=1;whiteSpace=wrap;html=1;" vertex="1" parent="WIyWlLk6GJQsqaUBKTNV-1">
          <mxGeometry x="220" y="380" width="120" height="60" as="geometry" />
        </mxCell>
      </root>
    </mxGraphModel>
  </diagram>
</mxfile>
